<svg width="215" height="166" viewBox="0 0 215 166" fill="none" xmlns="http://www.w3.org/2000/svg">
<g id="dream dream">
<path d="M10.6332 70.8771C17.0654 67.6875 22.4421 66.6378 26.7635 67.7279C31.0763 68.7979 34.4843 71.86 36.9876 76.9141C38.8966 80.7505 40.2661 84.4385 41.0962 87.978C41.9177 91.4975 42.2398 94.6019 42.0626 97.2911C41.8767 99.9603 41.3322 102.403 40.4289 104.621C39.5371 106.809 38.3841 108.611 36.9699 110.026C35.5757 111.432 33.985 112.519 32.1976 113.286L18.788 119.116L0.683761 75.7908L10.6332 70.8771ZM26.441 103.785C28.5095 102.897 29.5003 100.773 29.4134 97.4133C29.338 94.0248 28.1635 90.0987 25.8899 85.6348C24.179 82.2597 22.5746 80.1574 21.0766 79.3277C19.5987 78.4895 17.685 78.8242 15.3354 80.332L26.441 103.785Z" fill="white"/>
<path d="M56.452 85.5178C58.2573 87.617 59.7326 89.5017 60.8778 91.1717C62.0145 92.8216 62.8196 94.115 63.2933 95.0519C63.7669 95.9888 64.387 97.3498 65.1536 99.135L52.2001 104.697L34.2766 61.2947L46.7566 55.7932C58.594 50.5677 66.0759 51.5954 69.2023 58.8763C70.9679 62.9881 70.6045 66.9332 68.112 70.7116C65.631 74.4614 61.0668 77.7635 54.4194 80.6179L55.1041 82.2125L65.8584 77.5945C68.1802 79.5671 70.2865 80.6225 72.1773 80.7608C74.0797 80.8704 76.4266 80.1595 79.218 78.6283L84.4632 90.8434C82.4147 91.723 80.5657 92.3744 78.9159 92.7978C77.2863 93.2125 75.5906 93.418 73.8288 93.4143C72.0671 93.4106 70.367 93.1072 68.7285 92.5042C67.1014 91.8726 65.3868 90.8984 63.5846 89.5818C61.7824 88.2651 59.9097 86.563 57.9667 84.4754L56.452 85.5178ZM54.2113 74.6495C55.838 73.951 56.8894 72.965 57.3653 71.6916C57.8614 70.4096 57.7563 68.9462 57.0501 67.3015C55.7926 64.3731 53.4769 63.6333 50.103 65.082L48.8679 65.6124L53.3377 75.0246L54.2113 74.6495Z" fill="white"/>
<path d="M68.558 46.5742L94.4046 35.4756L98.6765 45.2579L84.4879 51.3505L89.9915 64.1672L91.1061 63.6886L90.4544 56.521L102.186 54.2627C102.901 55.9275 103.226 57.4866 103.16 58.9402C103.086 60.3736 102.692 61.5882 101.978 62.5838C101.263 63.5794 100.332 64.4305 99.1849 65.137C98.0488 65.8149 96.7779 66.2894 95.372 66.5605C93.9862 66.823 92.563 66.8877 91.1025 66.7547L94.3323 74.2762L108.671 68.119L113.744 78.2701L86.4815 89.9767L68.558 46.5742Z" fill="white"/>
<path d="M135.182 60.9758L126.114 64.8693L128.023 72.1387L115.039 77.7139L105.912 30.5343L124.228 22.6696L152.122 61.7904L139.169 67.3526L135.182 60.9758ZM130.17 53.0435C129.255 51.7975 127.644 49.2106 125.339 45.2829C123.046 41.3265 121.524 38.4758 120.775 36.7308L118.606 37.6622C119.338 39.3671 120.314 42.4162 121.535 46.8096C122.776 51.1943 123.535 54.1821 123.814 55.7728L130.17 53.0435Z" fill="white"/>
<path d="M163.585 30.8201L165.121 30.1604L159.684 7.44458L175.107 0.82164L194.266 43.6938L181.283 49.2689C179.764 45.2887 178.174 39.8422 176.514 32.9295C174.865 25.988 173.644 19.2668 172.851 12.7659L171.181 12.9484L175.284 51.9162L172.361 53.1709L146.931 23.3614L145.649 24.4465C149.816 29.4987 153.839 35.0169 157.717 41.0012C161.606 46.9567 164.471 51.8556 166.311 55.6978L153.357 61.2601L135.434 17.8576L150.857 11.2347L163.585 30.8201Z" fill="white"/>
<path d="M30.5124 117.172C36.9446 113.983 42.3213 112.933 46.6428 114.023C50.9555 115.093 54.3636 118.155 56.8668 123.209C58.7758 127.046 60.1454 130.734 60.9755 134.273C61.7969 137.793 62.119 140.897 61.9418 143.586C61.756 146.255 61.2114 148.699 60.3081 150.916C59.4163 153.104 58.2633 154.906 56.8491 156.321C55.455 157.727 53.8642 158.814 52.0768 159.581L38.6673 165.411L20.563 122.086L30.5124 117.172ZM46.3202 150.08C48.3887 149.192 49.3795 147.068 49.2926 143.708C49.2172 140.32 48.0427 136.394 45.7691 131.93C44.0582 128.555 42.4538 126.453 40.9558 125.623C39.4779 124.785 37.5642 125.119 35.2146 126.627L46.3202 150.08Z" fill="white"/>
<path d="M76.3312 131.813C78.1365 133.912 79.6118 135.797 80.757 137.467C81.8937 139.117 82.6988 140.41 83.1725 141.347C83.6461 142.284 84.2662 143.645 85.0328 145.43L72.0793 150.992L54.1558 107.59L66.6358 102.088C78.4732 96.8628 85.9551 97.8905 89.0815 105.171C90.8471 109.283 90.4837 113.228 87.9912 117.007C85.5102 120.757 80.946 124.059 74.2986 126.913L74.9833 128.508L85.7376 123.89C88.0594 125.862 90.1657 126.918 92.0566 127.056C93.9589 127.165 96.3058 126.455 99.0973 124.923L104.342 137.138C102.294 138.018 100.445 138.67 98.7952 139.093C97.1655 139.508 95.4698 139.713 93.7081 139.709C91.9463 139.706 90.2462 139.402 88.6077 138.799C86.9807 138.168 85.266 137.194 83.4638 135.877C81.6616 134.56 79.789 132.858 77.8459 130.77L76.3312 131.813ZM74.0905 120.945C75.7172 120.246 76.7686 119.26 77.2446 117.987C77.7406 116.705 77.6356 115.241 76.9293 113.597C75.6718 110.668 73.3562 109.928 69.9822 111.377L68.7472 111.908L73.2169 121.32L74.0905 120.945Z" fill="white"/>
<path d="M88.4372 92.8693L114.284 81.7708L118.556 91.553L104.367 97.6456L109.871 110.462L110.985 109.984L110.334 102.816L122.066 100.558C122.78 102.223 123.105 103.782 123.039 105.235C122.965 106.669 122.571 107.883 121.857 108.879C121.143 109.875 120.212 110.726 119.064 111.432C117.928 112.11 116.657 112.585 115.251 112.856C113.865 113.118 112.442 113.183 110.982 113.05L114.212 120.571L128.551 114.414L133.623 124.565L106.361 136.272L88.4372 92.8693Z" fill="white"/>
<path d="M155.061 107.271L145.994 111.164L147.902 118.434L134.919 124.009L125.791 76.8294L144.107 68.9647L172.002 108.086L159.048 113.648L155.061 107.271ZM150.049 99.3386C149.134 98.0926 147.523 95.5058 145.218 91.5781C142.925 87.6217 141.404 84.771 140.654 83.026L138.485 83.9573C139.217 85.6622 140.194 88.7113 141.414 93.1047C142.655 97.4895 143.414 100.477 143.693 102.068L150.049 99.3386Z" fill="white"/>
<path d="M183.464 77.1153L185 76.4556L179.563 53.7397L194.987 47.1168L214.145 89.9889L201.162 95.5641C199.643 91.5839 198.053 86.1374 196.393 79.2246C194.745 72.2832 193.524 65.5619 192.73 59.061L191.06 59.2435L195.163 98.2113L192.241 99.4661L166.81 69.6565L165.528 70.7417C169.695 75.7939 173.718 81.3121 177.596 87.2963C181.485 93.2518 184.35 98.1507 186.19 101.993L173.237 107.555L155.313 64.1527L170.737 57.5298L183.464 77.1153Z" fill="white"/>
</g>
</svg>
