<svg width="159" height="47" viewBox="0 0 159 47" fill="none" xmlns="http://www.w3.org/2000/svg">
<path id="Vector" d="M23.0178 35.6257C19.8843 34.9003 16.8296 33.9565 13.8877 32.8049C10.8503 31.6421 8.02464 30.1354 5.49517 28.3299C4.85387 27.8536 4.24333 27.3503 3.66603 26.8223L3.44569 26.6251L3.22006 26.3892L2.7743 25.9128C2.48727 25.5896 2.25436 25.2333 2.0029 24.8909C1.118 23.4712 0.702426 21.8914 0.797778 20.3097C0.893129 18.728 1.49607 17.2 2.54621 15.8787L2.73592 15.6319L2.95298 15.4003L3.39209 14.9405C3.70715 14.6506 4.04085 14.3711 4.38582 14.1058L4.93607 13.7357C5.11527 13.609 5.30619 13.4936 5.50718 13.3907C5.87874 13.1839 6.2632 12.9928 6.65906 12.8182C12.6437 10.1236 19.1363 8.36766 25.6141 7.03805C29.9413 6.14133 34.3057 5.45 38.6584 4.82419C40.8351 4.51004 43.0122 4.22637 45.1891 3.92594C47.3678 3.63586 49.5534 3.37285 51.7352 3.09489C60.4754 2.03708 69.2731 1.20544 78.1176 0.698318C86.9738 0.171518 95.8647 0.0385182 104.751 0.299888C113.663 0.562243 122.55 1.34504 131.342 2.64228C132.022 2.72687 132.693 2.8574 133.368 2.96734L135.39 3.31387C136.738 3.54998 138.084 3.76612 139.433 4.04356C142.195 4.56308 144.901 5.27306 147.522 6.16582C148.866 6.63913 150.164 7.19616 151.405 7.83192C151.717 7.99383 152.029 8.15547 152.331 8.33362C152.648 8.50516 152.953 8.69196 153.244 8.893L154.155 9.52346C154.437 9.75282 154.704 9.99655 154.976 10.2345C155.25 10.4721 155.499 10.7272 155.723 10.9972C155.969 11.2542 156.191 11.5252 156.389 11.8081C156.583 12.0922 156.782 12.3747 156.967 12.6623L157.426 13.5607C157.972 14.7761 158.261 16.0555 158.283 17.3445C158.27 18.629 157.995 19.9 157.469 21.1054C156.93 22.309 156.129 23.4213 155.107 24.3898L154.31 25.0911C154.02 25.3028 153.72 25.5057 153.423 25.7113C153.277 25.8083 153.119 25.9271 152.981 26.0051L152.563 26.2506L151.727 26.7415C151.169 27.0671 150.616 27.3999 150.052 27.7191L148.34 28.6529C146.06 29.9005 143.698 31.0417 141.314 32.148C140.107 32.6785 138.903 33.2152 137.684 33.7255L135.842 34.4714L134.922 34.8443L133.989 35.1956C129.023 37.0796 123.918 38.7122 118.7 40.0843C113.491 41.4469 108.192 42.5788 102.826 43.475C92.1071 45.27 81.2107 46.2238 70.3137 46.6579C63.7363 46.9277 57.0872 46.9037 50.5977 46.7795C44.3812 46.6528 40.3677 46.2608 37.8866 45.8157C36.0803 45.4915 36.0951 45.1972 37.6572 44.9868C39.2193 44.7764 42.3291 44.6563 46.7149 44.6246C52.2652 44.5871 58.3231 44.5687 64.0475 44.4585C77.2193 44.2029 90.3625 43.2459 103.142 40.9598C115.898 38.6727 128.309 35.0615 139.547 29.7913C142.637 28.3257 145.69 26.7037 148.623 24.9874C149.35 24.551 150.074 24.1156 150.798 23.6812C151.129 23.4676 151.39 23.2651 151.693 23.0619C151.974 22.8488 152.212 22.6031 152.478 22.3806C153.449 21.4324 154.132 20.3084 154.471 19.099C154.725 18.1409 154.768 17.1512 154.597 16.1762L154.523 15.8123C154.506 15.6902 154.475 15.5694 154.431 15.4516L154.183 14.7415L153.837 14.0599L153.752 13.8891L153.64 13.7288L153.418 13.4073C153.344 13.3005 153.275 13.1906 153.197 13.0855L152.929 12.7885C152.762 12.5829 152.577 12.3883 152.373 12.2065L151.756 11.6641L151.057 11.1871C150.813 11.0174 150.556 10.861 150.287 10.7191C150.021 10.5614 149.737 10.4222 149.459 10.2769C148.898 9.99055 148.314 9.73053 147.722 9.47953C145.26 8.5108 142.679 7.76206 140.026 7.24647C137.333 6.67342 134.529 6.28734 131.779 5.80772C130.395 5.59026 129 5.42351 127.611 5.22896L125.525 4.94692C124.828 4.86139 124.128 4.7959 123.429 4.71929L119.236 4.2771L115.028 3.94539C114.327 3.89413 113.627 3.82436 112.924 3.78802L110.816 3.67421C109.409 3.60528 108.006 3.50484 106.598 3.45915C103.784 3.37403 100.971 3.25783 98.1551 3.25181C81.4086 3.05008 64.6021 4.51291 47.9993 6.58076C40.595 7.53204 33.1781 8.46879 26.0035 9.94406C22.4273 10.6694 18.9143 11.5806 15.4858 12.6721C14.6438 12.9622 13.7877 13.2303 12.9636 13.5488C12.5491 13.704 12.1305 13.8535 11.7191 14.0134L10.4965 14.5107C10.0854 14.6716 9.68617 14.8488 9.28906 15.029C8.89554 15.2069 8.48058 15.3856 8.1043 15.5625C7.77447 15.7246 7.4598 15.9062 7.16277 16.1059C7.01041 16.2013 6.86507 16.304 6.72749 16.4134L6.32818 16.7524C5.30274 17.7055 4.67179 18.9004 4.52352 20.17C4.44529 20.7996 4.49513 21.4368 4.67105 22.0558C4.69176 22.1329 4.70579 22.2116 4.73097 22.2878L4.82289 22.5127C4.88891 22.661 4.92966 22.8173 5.01186 22.9603L5.25323 23.3919C5.33753 23.5344 5.4331 23.6724 5.53933 23.805C5.73962 24.078 5.96473 24.3385 6.21276 24.5842C6.49175 24.8428 6.79394 25.111 7.09413 25.3679C7.72064 25.8794 8.38223 26.3614 9.0756 26.8115C10.4976 27.7231 12.012 28.5334 13.602 29.2332C16.8569 30.6451 20.2781 31.7789 23.8107 32.6165C27.4138 33.4915 31.0394 34.3009 34.6875 35.0447C40.5093 36.2232 46.1882 37.2954 51.6621 38.234C54.398 38.7086 57.0828 39.1472 59.7054 39.563C62.3258 39.9937 64.8889 40.3723 67.3787 40.7389C69.6705 41.0639 70.7313 41.3461 70.5421 41.5294C70.354 41.7045 68.9115 41.8045 66.2076 41.6741C58.3068 41.2959 50.4348 40.5297 42.6344 39.3797C39.3818 38.9182 36.1136 38.3206 32.8475 37.6783C29.5821 37.0315 26.3208 36.3271 23.0932 35.5846C23.0694 35.599 23.0466 35.612 23.0178 35.6257Z" fill="black"/>
</svg>
