<svg width="78" height="72" viewBox="0 0 78 72" fill="none" xmlns="http://www.w3.org/2000/svg">
<g id="Vector">
<path d="M33.358 4.49589C33.0586 5.57407 32.7546 6.65052 32.4214 7.72046C32.2515 8.28944 32.0742 8.85919 31.9433 9.43779C31.248 12.5268 30.5892 15.6263 29.8185 18.6982C29.3352 20.5871 28.8321 22.4709 28.3093 24.3497L27.5166 27.165L26.6923 29.9711C26.5106 30.5346 26.2839 31.0822 26.0142 31.6088C25.9135 31.8294 25.7615 32.0226 25.5706 32.1723C25.3797 32.322 25.1555 32.424 24.9165 32.4698C24.2572 32.6114 23.7418 32.1154 23.8145 31.3167C23.8745 30.7985 23.9993 30.2903 24.1861 29.804C24.5901 28.688 24.9447 27.5589 25.2499 26.4167C25.5592 25.2756 25.8216 24.1216 26.0371 22.9548C26.1566 22.3109 26.2436 21.6307 26.4925 21.0418C27.2852 19.1597 27.6563 17.1455 28.2886 15.2138C28.7575 13.7777 29.1179 12.3036 29.5438 10.8519L30.6794 6.96729C31.0504 5.67043 31.4544 4.38173 31.8297 3.0852C31.9902 2.58443 32.1837 2.09501 32.4089 1.62011C32.6332 1.17641 32.882 0.745646 33.1542 0.329808C33.3942 -0.0385632 33.6702 0.0574295 33.6968 0.560993C33.7335 1.28349 33.7195 2.00724 33.6551 2.72696C33.629 3.02255 33.5855 3.31785 33.5297 3.61112C33.462 3.90141 33.394 4.19275 33.3264 4.48234L33.358 4.49589Z" fill="black"/>
<path d="M61.485 21.0675L60.5137 22.1172L59.5154 23.1444C59.1632 23.5086 58.8092 23.8744 58.49 24.2669C58.0628 24.7895 57.6422 25.3175 57.2237 25.8471L55.9597 27.4277L53.4394 30.5933L50.3267 34.4831L47.235 38.3905C46.9109 38.7777 46.5591 39.1408 46.1825 39.4773C46.0338 39.6216 45.8531 39.7289 45.6547 39.7908C45.4564 39.8526 45.2459 39.8672 45.0401 39.8335C44.4703 39.7525 44.2107 39.2073 44.5113 38.5853C44.7154 38.1854 44.9705 37.8137 45.2703 37.4796C46.6013 35.9351 47.8324 34.3075 48.9562 32.6064C49.2391 32.1156 49.5774 31.6589 49.9646 31.2453C51.2393 30.0315 52.2374 28.5797 53.4309 27.2982C54.3181 26.3471 55.138 25.3306 56.0218 24.3739C57.6044 22.6739 59.2027 20.9907 60.8627 19.3666C61.4863 18.7432 62.2097 18.2278 63.0038 17.8413C63.3472 17.6733 63.5485 17.8906 63.358 18.2749C63.0809 18.8232 62.7679 19.3525 62.4211 19.8595C62.1265 20.273 61.8075 20.6686 61.4657 21.0441L61.485 21.0675Z" fill="black"/>
<path d="M74.7743 48.7052C73.9685 48.9004 73.1614 49.0921 72.353 49.2803C71.9194 49.3617 71.4913 49.4688 71.0708 49.601C69.9594 49.9772 68.8561 50.3781 67.7537 50.7789C66.6507 51.1783 65.5462 51.5702 64.436 51.944C63.0698 52.4073 61.6993 52.8561 60.3297 53.3081L56.2133 54.6411C55.7867 54.761 55.3465 54.8284 54.9026 54.8419C54.4766 54.8704 54.0994 54.5996 53.779 54.1865C53.3121 53.5848 53.2876 52.7806 53.7853 52.4195C54.1101 52.1993 54.4777 52.0492 54.8649 51.9785C56.602 51.5986 58.2865 51.0157 59.8836 50.2417C60.3274 50.0287 60.7775 49.769 61.2626 49.7245C62.8089 49.5762 64.2092 48.9441 65.7044 48.634C66.8138 48.4 67.8972 48.0624 69.0017 47.8074C69.9864 47.5798 70.9727 47.3599 71.9606 47.1478L74.9395 46.5716C75.7157 46.4171 76.5192 46.45 77.2833 46.6676C77.3617 46.6849 77.4333 46.7252 77.489 46.7832C77.5447 46.8413 77.5818 46.9145 77.5957 46.9934C77.6096 47.0723 77.5995 47.1534 77.5668 47.2261C77.5342 47.2989 77.4803 47.3601 77.4123 47.4019C76.965 47.7082 76.4996 47.9875 76.0187 48.2385C75.6131 48.4123 75.195 48.5558 74.7677 48.668L74.7743 48.7052Z" fill="black"/>
<path d="M65.3769 71.5824C65.1581 71.5378 64.9378 71.5012 64.7212 71.4432L64.0716 71.267C63.8436 71.1989 63.6105 71.1499 63.3746 71.1207C62.7429 71.0652 62.1071 71.0335 61.4775 70.9669C60.8466 70.9076 60.2161 70.8446 59.5896 70.7588C58.8178 70.6543 58.0483 70.5364 57.2831 70.3931L54.9875 69.9638C54.7502 69.9019 54.5262 69.7964 54.3271 69.6528C54.1241 69.5237 54.036 69.1905 54.0182 68.7721C53.9924 68.1624 54.2301 67.5587 54.5659 67.4665C54.7735 67.4176 54.9919 67.436 55.1895 67.5188C56.0901 67.846 57.0453 67.9923 57.9998 67.9494C58.2666 67.9397 58.5514 67.8891 58.7865 68.021C59.5389 68.433 60.3702 68.422 61.1513 68.6777C61.731 68.8719 62.3356 68.9424 62.9196 69.1194C63.962 69.4301 65.0084 69.7153 66.0443 70.0615C66.4751 70.1983 66.8537 70.4648 67.1277 70.8243C67.1605 70.869 67.1832 70.9203 67.1941 70.9744C67.2051 71.0286 67.204 71.0844 67.1911 71.138C67.1782 71.1915 67.1536 71.2415 67.1192 71.2844C67.0847 71.3273 67.0413 71.3621 66.9918 71.3863C66.845 71.4342 66.6957 71.477 66.546 71.5141C66.3998 71.5535 66.2504 71.5804 66.0994 71.5944C65.8604 71.6024 65.621 71.5885 65.3842 71.5528L65.3769 71.5824Z" fill="black"/>
<path d="M2.75469 19.1443C2.97088 19.6329 3.18162 20.1227 3.38689 20.6139C3.48913 20.8766 3.60711 21.1331 3.74019 21.3819C4.12245 22.0284 4.4983 22.6802 4.86222 23.3397C5.22334 24.0006 5.55896 24.6746 5.86911 25.3616C6.24156 26.2104 6.58889 27.0709 6.89923 27.9445C7.20988 28.8179 7.49656 29.6992 7.75926 30.5883C7.82787 30.8672 7.84889 31.1553 7.8214 31.4404C7.8093 31.7175 7.5655 31.9598 7.21361 32.1615C6.70077 32.4546 6.06603 32.4645 5.82806 32.1585C5.68768 31.9611 5.60055 31.7313 5.57512 31.4913C5.41747 30.4144 5.04693 29.3777 4.48505 28.4415C4.33225 28.1798 4.13535 27.9236 4.10503 27.6264C4.01106 26.6726 3.5 25.8702 3.21445 24.9843C3.10613 24.6552 2.98005 24.3321 2.83678 24.0163C2.70038 23.6975 2.55412 23.383 2.42124 23.0623C1.94614 21.9193 1.45863 20.7751 0.917848 19.6523C0.70537 19.173 0.652223 18.6396 0.766227 18.1306C0.801419 17.8829 1.02922 17.7565 1.33109 17.8391L1.6184 17.9509C1.66391 17.9661 1.70607 17.99 1.74247 18.0213L1.84927 18.1033C1.9893 18.2126 2.12265 18.3302 2.2486 18.4554C2.3488 18.557 2.43799 18.6688 2.51466 18.7889C2.58543 18.9116 2.65109 19.0377 2.72375 19.1589L2.75469 19.1443Z" fill="black"/>
</g>
</svg>
