<svg width="207" height="12" viewBox="0 0 207 12" fill="none" xmlns="http://www.w3.org/2000/svg">
<path id="Vector 1" d="M1.8045 2.82166C4.21088 2.82166 6.51683 3.33626 8.9063 3.37745C12.0888 3.43232 15.2408 3.25935 18.4165 3.115C24.9089 2.81989 31.568 2.85341 37.7149 5.38448C40.0749 6.35627 42.441 7.24352 44.7549 8.31783C47.0561 9.38626 50.2697 9.22724 52.7676 9.63012C56.2921 10.1986 59.9896 10.3163 63.4048 9.15152C68.1358 7.53809 72.8329 6.2047 77.7937 5.47711C85.7459 4.31079 93.6647 3.7525 101.693 3.43921C108.546 3.17177 115.404 3.24759 122.257 3.0378C127.474 2.87809 132.676 2.26587 137.896 2.26587C147.865 2.26587 157.702 3.60692 167.678 3.65535C173.148 3.68191 178.62 3.73727 184.089 3.82518C189.22 3.90764 194.74 3.71796 199.883 4.36553C200.366 4.42638 200.818 4.48904 201.334 4.48904C202.702 4.48904 204.128 4.77785 205.225 5.60062" stroke="black" stroke-width="3" stroke-linecap="round"/>
</svg>
